2024-05-17 07:17:00,921 [INFO ]  Machine name: titan
2024-05-17 07:17:00,921 [INFO ]  Arguments: 
2024-05-17 07:17:00,921 [INFO ]  Namespace(appliances=['kettle', 'fridge', 'microwave', 'washingmachine', 'dishwasher'], datadir='/home/lindo/Develop/nilm-datasets/my-house', panel='house', results_dir='/home/lindo/Develop/nilm/ml/dataset_management/my-house', crop=None, plot=True)
2024-05-17 07:17:00,921 [INFO ]  Using alt standardization.
2024-05-17 07:17:00,921 [INFO ]  Found mains real power files: ['/home/lindo/Develop/nilm-datasets/my-house/house/samples_03_28_24.csv', '/home/lindo/Develop/nilm-datasets/my-house/house/samples_02_14_24.csv', '/home/lindo/Develop/nilm-datasets/my-house/house/samples_02_28_24.csv', '/home/lindo/Develop/nilm-datasets/my-house/house/samples_05_17_24.csv', '/home/lindo/Develop/nilm-datasets/my-house/house/samples_02_25_24.csv', '/home/lindo/Develop/nilm-datasets/my-house/house/samples_04_20_24.csv', '/home/lindo/Develop/nilm-datasets/my-house/house/samples_03_08_24.csv', '/home/lindo/Develop/nilm-datasets/my-house/house/samples_03_18_24.csv', '/home/lindo/Develop/nilm-datasets/my-house/house/samples_04_15_24a.csv', '/home/lindo/Develop/nilm-datasets/my-house/house/samples_04_22_24.csv', '/home/lindo/Develop/nilm-datasets/my-house/house/samples_04_22_24_pm.csv', '/home/lindo/Develop/nilm-datasets/my-house/house/samples_02_15_24.csv', '/home/lindo/Develop/nilm-datasets/my-house/house/samples_04_15_24.csv', '/home/lindo/Develop/nilm-datasets/my-house/house/samples_04_29_24.csv', '/home/lindo/Develop/nilm-datasets/my-house/house/samples_04_06_24.csv'].
2024-05-17 07:17:04,293 [INFO ]  Found ground truth files: ['/home/lindo/Develop/nilm-datasets/my-house/house/appliance_energy_data_032824.csv', '/home/lindo/Develop/nilm-datasets/my-house/house/appliance_energy_data_021624.csv', '/home/lindo/Develop/nilm-datasets/my-house/house/appliance_energy_data_021424.csv', '/home/lindo/Develop/nilm-datasets/my-house/house/appliance_energy_data_022824.csv', '/home/lindo/Develop/nilm-datasets/my-house/house/appliance_energy_data_051724.csv', '/home/lindo/Develop/nilm-datasets/my-house/house/appliance_energy_data_042924.csv', '/home/lindo/Develop/nilm-datasets/my-house/house/appliance_energy_data_041124.csv', '/home/lindo/Develop/nilm-datasets/my-house/house/appliance_energy_data_042224.csv', '/home/lindo/Develop/nilm-datasets/my-house/house/appliance_energy_data_041524.csv', '/home/lindo/Develop/nilm-datasets/my-house/house/appliance_energy_data_030824.csv', '/home/lindo/Develop/nilm-datasets/my-house/house/appliance_energy_data_022524.csv', '/home/lindo/Develop/nilm-datasets/my-house/house/appliance_energy_data_042224pm.csv', '/home/lindo/Develop/nilm-datasets/my-house/house/appliance_energy_data_042024.csv', '/home/lindo/Develop/nilm-datasets/my-house/house/appliance_energy_data_031924.csv', '/home/lindo/Develop/nilm-datasets/my-house/house/appliance_energy_data_021124.csv', '/home/lindo/Develop/nilm-datasets/my-house/house/appliance_energy_data_021224.csv'].
2024-05-17 07:17:23,965 [INFO ]  Number of ground truth samples per appliance: 820692.
2024-05-17 07:17:23,965 [INFO ]  Number of training samples: 656553
2024-05-17 07:17:23,965 [INFO ]  Number of validation samples: 164138
2024-05-17 07:17:23,966 [INFO ]  Number of test samples: 0
2024-05-17 07:17:23,966 [INFO ]  Working on dataset: training.
2024-05-17 07:17:23,966 [INFO ]  Working on appliance: kettle.
2024-05-17 07:17:23,968 [INFO ]  Number of NaN rows dropped: 883
2024-05-17 07:17:23,974 [INFO ]  Clamping appliance power to: 3100.0 (W)
2024-05-17 07:17:23,978 [INFO ]  Computing on-off status.
2024-05-17 07:17:24,081 [INFO ]  Number of samples with on status: 1462.
2024-05-17 07:17:24,081 [INFO ]  Number of samples with off status: 654208.
2024-05-17 07:17:24,081 [INFO ]  Number of total samples: 655670.
2024-05-17 07:18:11,622 [INFO ]  Standardizing aggregate with mean 522.0 (W) and std 814.0 (W).
2024-05-17 07:18:11,625 [INFO ]  Normalizing appliance with min 0.0 (W) and max 3100.0 (W).
2024-05-17 07:18:11,629 [INFO ]  Saving dataset as kettle_training_house.csv.
2024-05-17 07:18:15,407 [INFO ]  Working on appliance: fridge.
2024-05-17 07:18:15,410 [INFO ]  Number of NaN rows dropped: 731
2024-05-17 07:18:15,416 [INFO ]  Clamping appliance power to: 400.0 (W)
2024-05-17 07:18:15,420 [INFO ]  Computing on-off status.
2024-05-17 07:18:15,525 [INFO ]  Number of samples with on status: 281123.
2024-05-17 07:18:15,525 [INFO ]  Number of samples with off status: 374699.
2024-05-17 07:18:15,525 [INFO ]  Number of total samples: 655822.
2024-05-17 07:19:04,084 [INFO ]  Standardizing aggregate with mean 522.0 (W) and std 814.0 (W).
2024-05-17 07:19:04,087 [INFO ]  Normalizing appliance with min 0.0 (W) and max 400.0 (W).
2024-05-17 07:19:04,090 [INFO ]  Saving dataset as fridge_training_house.csv.
2024-05-17 07:19:08,029 [INFO ]  Working on appliance: microwave.
2024-05-17 07:19:08,031 [INFO ]  Number of NaN rows dropped: 123527
2024-05-17 07:19:08,036 [INFO ]  Clamping appliance power to: 3000.0 (W)
2024-05-17 07:19:08,039 [INFO ]  Computing on-off status.
2024-05-17 07:19:08,126 [INFO ]  Number of samples with on status: 2993.
2024-05-17 07:19:08,126 [INFO ]  Number of samples with off status: 530033.
2024-05-17 07:19:08,126 [INFO ]  Number of total samples: 533026.
2024-05-17 07:19:36,108 [INFO ]  Standardizing aggregate with mean 522.0 (W) and std 814.0 (W).
2024-05-17 07:19:36,110 [INFO ]  Normalizing appliance with min 0.0 (W) and max 3000.0 (W).
2024-05-17 07:19:36,113 [INFO ]  Saving dataset as microwave_training_house.csv.
2024-05-17 07:19:39,321 [INFO ]  Working on appliance: washingmachine.
2024-05-17 07:19:39,324 [INFO ]  Number of NaN rows dropped: 514
2024-05-17 07:19:39,330 [INFO ]  Clamping appliance power to: 2500.0 (W)
2024-05-17 07:19:39,334 [INFO ]  Computing on-off status.
2024-05-17 07:19:39,438 [INFO ]  Number of samples with on status: 36396.
2024-05-17 07:19:39,438 [INFO ]  Number of samples with off status: 619643.
2024-05-17 07:19:39,438 [INFO ]  Number of total samples: 656039.
2024-05-17 07:20:57,391 [INFO ]  Standardizing aggregate with mean 522.0 (W) and std 814.0 (W).
2024-05-17 07:20:57,394 [INFO ]  Normalizing appliance with min 0.0 (W) and max 2500.0 (W).
2024-05-17 07:20:57,397 [INFO ]  Saving dataset as washingmachine_training_house.csv.
2024-05-17 07:21:01,275 [INFO ]  Working on appliance: dishwasher.
2024-05-17 07:21:01,277 [INFO ]  Number of NaN rows dropped: 123547
2024-05-17 07:21:01,282 [INFO ]  Clamping appliance power to: 2500.0 (W)
2024-05-17 07:21:01,285 [INFO ]  Computing on-off status.
2024-05-17 07:21:01,369 [INFO ]  Number of samples with on status: 22194.
2024-05-17 07:21:01,369 [INFO ]  Number of samples with off status: 510812.
2024-05-17 07:21:01,369 [INFO ]  Number of total samples: 533006.
2024-05-17 07:21:14,527 [INFO ]  Standardizing aggregate with mean 522.0 (W) and std 814.0 (W).
2024-05-17 07:21:14,529 [INFO ]  Normalizing appliance with min 0.0 (W) and max 2500.0 (W).
2024-05-17 07:21:14,532 [INFO ]  Saving dataset as dishwasher_training_house.csv.
2024-05-17 07:21:17,850 [INFO ]  Working on dataset: validation.
2024-05-17 07:21:17,850 [INFO ]  Working on appliance: kettle.
2024-05-17 07:21:17,851 [INFO ]  Number of NaN rows dropped: 93
2024-05-17 07:21:17,852 [INFO ]  Clamping appliance power to: 3100.0 (W)
2024-05-17 07:21:17,854 [INFO ]  Computing on-off status.
2024-05-17 07:21:17,880 [INFO ]  Number of samples with on status: 90.
2024-05-17 07:21:17,880 [INFO ]  Number of samples with off status: 163955.
2024-05-17 07:21:17,880 [INFO ]  Number of total samples: 164045.
2024-05-17 07:21:53,685 [INFO ]  Standardizing aggregate with mean 522.0 (W) and std 814.0 (W).
2024-05-17 07:21:53,686 [INFO ]  Normalizing appliance with min 0.0 (W) and max 3100.0 (W).
2024-05-17 07:21:53,687 [INFO ]  Saving dataset as kettle_validation_house.csv.
2024-05-17 07:21:54,654 [INFO ]  Working on appliance: fridge.
2024-05-17 07:21:54,655 [INFO ]  Number of NaN rows dropped: 109
2024-05-17 07:21:54,657 [INFO ]  Clamping appliance power to: 400.0 (W)
2024-05-17 07:21:54,658 [INFO ]  Computing on-off status.
2024-05-17 07:21:54,684 [INFO ]  Number of samples with on status: 75332.
2024-05-17 07:21:54,684 [INFO ]  Number of samples with off status: 88697.
2024-05-17 07:21:54,684 [INFO ]  Number of total samples: 164029.
2024-05-17 07:22:00,969 [INFO ]  Standardizing aggregate with mean 522.0 (W) and std 814.0 (W).
2024-05-17 07:22:00,970 [INFO ]  Normalizing appliance with min 0.0 (W) and max 400.0 (W).
2024-05-17 07:22:00,971 [INFO ]  Saving dataset as fridge_validation_house.csv.
2024-05-17 07:22:01,975 [INFO ]  Working on appliance: microwave.
2024-05-17 07:22:01,976 [INFO ]  Number of NaN rows dropped: 107
2024-05-17 07:22:01,978 [INFO ]  Clamping appliance power to: 3000.0 (W)
2024-05-17 07:22:01,979 [INFO ]  Computing on-off status.
2024-05-17 07:22:02,006 [INFO ]  Number of samples with on status: 1111.
2024-05-17 07:22:02,006 [INFO ]  Number of samples with off status: 162920.
2024-05-17 07:22:02,006 [INFO ]  Number of total samples: 164031.
2024-05-17 07:22:07,097 [INFO ]  Standardizing aggregate with mean 522.0 (W) and std 814.0 (W).
2024-05-17 07:22:07,099 [INFO ]  Normalizing appliance with min 0.0 (W) and max 3000.0 (W).
2024-05-17 07:22:07,100 [INFO ]  Saving dataset as microwave_validation_house.csv.
2024-05-17 07:22:08,115 [INFO ]  Working on appliance: washingmachine.
2024-05-17 07:22:08,116 [INFO ]  Number of NaN rows dropped: 101
2024-05-17 07:22:08,118 [INFO ]  Clamping appliance power to: 2500.0 (W)
2024-05-17 07:22:08,119 [INFO ]  Computing on-off status.
2024-05-17 07:22:08,145 [INFO ]  Number of samples with on status: 6862.
2024-05-17 07:22:08,145 [INFO ]  Number of samples with off status: 157175.
2024-05-17 07:22:08,145 [INFO ]  Number of total samples: 164037.
2024-05-17 07:22:14,273 [INFO ]  Standardizing aggregate with mean 522.0 (W) and std 814.0 (W).
2024-05-17 07:22:14,274 [INFO ]  Normalizing appliance with min 0.0 (W) and max 2500.0 (W).
2024-05-17 07:22:14,275 [INFO ]  Saving dataset as washingmachine_validation_house.csv.
2024-05-17 07:22:15,286 [INFO ]  Working on appliance: dishwasher.
2024-05-17 07:22:15,288 [INFO ]  Number of NaN rows dropped: 164
2024-05-17 07:22:15,289 [INFO ]  Clamping appliance power to: 2500.0 (W)
2024-05-17 07:22:15,290 [INFO ]  Computing on-off status.
2024-05-17 07:22:15,316 [INFO ]  Number of samples with on status: 7844.
2024-05-17 07:22:15,316 [INFO ]  Number of samples with off status: 156130.
2024-05-17 07:22:15,316 [INFO ]  Number of total samples: 163974.
2024-05-17 07:22:20,701 [INFO ]  Standardizing aggregate with mean 522.0 (W) and std 814.0 (W).
2024-05-17 07:22:20,703 [INFO ]  Normalizing appliance with min 0.0 (W) and max 2500.0 (W).
2024-05-17 07:22:20,704 [INFO ]  Saving dataset as dishwasher_validation_house.csv.
2024-05-17 07:22:21,766 [INFO ]  Working on dataset: test.
2024-05-17 07:22:21,766 [INFO ]  Empty dataset, skipping.
2024-05-17 07:22:21,766 [INFO ]  Successfully completed.
